# xmcd CD database file
#
# Track frame offsets:
#	182
#	14422
#	29757
#	49415
#	61215
#	76277
#	87180
#	105410
#	119815
#	136110
#
# Disc length: 1984 seconds
#
# Revision: 2
# Processed by: cddbd v1.5.1PL0 Copyright (c) Steve Scherf et al.
# Submitted via: CDex 1.51
#
DISCID=8307be0a
DTITLE=Eddie Rabbitt - Country Classics
DYEAR=1900
DGENRE=Country
TTITLE0=I Love A Rainy Night
TTITLE1=Gone Too Far
TTITLE2=Suspicions
TTITLE3=Hearts On Fire
TTITLE4=You Don't Love Me Anymore
TTITLE5=Drinkin' My Baby (Off My Mind)
TTITLE6=I Just Want To Love You
TTITLE7=I Can't Help Myself (Here Comes That Feelin')
TTITLE8=Rocky Mountain Music
TTITLE9=Every Which Way But Loose
EXTD=
EXTT0=
EXTT1=
EXTT2=
EXTT3=
EXTT4=
EXTT5=
EXTT6=
EXTT7=
EXTT8=
EXTT9=
PLAYORDER=
